:SAMPLES-PER-SECOND 30
:FRAME-RANGE 1-1770
:FULLY-SPECIFIED
:DEGREES
554
root  28.9099 39.8905 -8.33659 -172.327 -25.8985 177.968
RightUpLeg  -8.25086 -27.2829 -5.70813
RightLeg  22.464 -4.41568 -2.2184
RightFoot  -10.544 -0.194728 17.4937
RightToes  6.35937e-011 1.2921e-014 -6.02303e-014
Spine  10.4467 3.85876 3.90926
Spine1  -4.90745 5.43688 -8.11778
HEad  7.02572 0.0858826 -2.67099
LeftShoulder1  1.54992 -2.51069 -19.2565
LeftArm  11.017 -50.6146 -52.3965
LeftForeArm  24.5571 -30.3069 -5.24108
LeftHand  -0.572268 0.676284 14.113
RightShoulder  20.3635 42.848 36.8703
RightArm  3.383 36.9497 24.383
RightForeArm  25.1741 30.3354 5.21415
RightHand  -1.35541 2.8516 -19.1652
LeftUpLeg  -13.1696 7.60025 -0.819692
LeftLeg  11.8173 3.07337 -1.92771
LeftFoot  -5.16569 0.111841 -1.49757
LeftToes  3.18074e-010 1.39432e-010 -7.71186e-011
555
root  29.5533 39.8398 -8.61465 -172.309 -26.8299 177.568
RightUpLeg  -11.6453 -21.9459 -6.86528
RightLeg  31.0555 0.703068 0.221984
RightFoot  -8.89201 -0.468446 18.903
RightToes  6.35937e-011 1.2921e-014 -6.02303e-014
Spine  10.4806 3.35747 1.18721
Spine1  -3.83847 4.70024 -7.612
HEad  6.34811 1.26731 -1.8519
LeftShoulder1  1.63636 -2.41986 -21.2404
LeftArm  12.0577 -45.6038 -49.1256
LeftForeArm  23.4764 -30.603 -5.37162
LeftHand  -0.600203 0.26349 13.6435
RightShoulder  21.1806 39.3102 42.3423
RightArm  11.0742 31.2346 25.7797
RightForeArm  25.4195 34.0105 6.10253
RightHand  -1.32756 2.8201 -18.8516
LeftUpLeg  -12.871 6.8642 0.266878
LeftLeg  11.3077 2.98652 -2.46819
LeftFoot  -4.72273 0.156975 -2.22399
LeftToes  3.18074e-010 1.39432e-010 -7.71186e-011
556
root  30.2269 39.7001 -8.90737 -172.156 -28.4618 177.179
RightUpLeg  -14.2395 -17.6175 -8.83795
RightLeg  37.9507 7.21589 5.74953
RightFoot  -7.46129 -0.831997 22.7658
RightToes  6.35937e-011 1.2921e-014 -6.02303e-014
Spine  10.1831 2.80043 -0.450216
Spine1  -2.20569 4.12289 -7.93218
HEad  6.41892 2.0537 -2.07153
LeftShoulder1  1.70158 -2.2595 -23.2533
LeftArm  17.2162 -41.4909 -46.8083
LeftForeArm  17.4856 -26.841 -4.83484
LeftHand  -0.556877 0.0481667 12.1721
RightShoulder  21.0588 35.4041 46.8102
RightArm  21.4319 24.7935 25.5599
RightForeArm  22.3167 31.8596 5.74236
RightHand  -1.15504 2.9598 -16.199
LeftUpLeg  -13.4929 8.09861 1.49654
LeftLeg  12.3077 0.14379 -3.86541
LeftFoot  -4.91968 0.202633 -3.08537
LeftToes  3.18074e-010 1.39432e-010 -7.71186e-011
557
root  30.8527 39.57 -9.21152 -171.715 -30.4154 176.668
RightUpLeg  -15.8202 -15.4628 -11.2503
RightLeg  41.61 9.70031 8.85192
RightFoot  -6.66105 -1.13701 26.2612
RightToes  6.35937e-011 1.2921e-014 -6.02303e-014
Spine  10.4023 2.36674 -1.45808
Spine1  -1.40265 3.6452 -8.1243
HEad  6.59145 2.66665 -2.87402
LeftShoulder1  1.73335 -1.96137 -25.548
LeftArm  23.6439 -37.2847 -44.8093
LeftForeArm  10.3602 -21.3961 -5.44161
LeftHand  -0.490569 0.0300744 10.6957
RightShoulder  19.6344 30.9305 49.5696
RightArm  34.3915 18.5976 24.5407
RightForeArm  15.7638 26.7029 4.89906
RightHand  -0.999693 3.05974 -13.9128
LeftUpLeg  -14.1599 8.89855 2.4358
LeftLeg  12.7692 -2.32525 -5.19324
LeftFoot  -4.71442 0.228594 -3.45929
LeftToes  3.18074e-010 1.39432e-010 -7.71186e-011
558
root  31.3947 39.614 -9.55998 -171.402 -32.1785 176.821
RightUpLeg  -16.2547 -13.9136 -13.1311
RightLeg  40.5404 6.48456 5.64725
RightFoot  -7.07648 -0.937084 23.5461
RightToes  6.35937e-011 1.2921e-014 -6.02303e-014
Spine  10.8088 2.09124 -1.33675
Spine1  -1.32624 3.26156 -7.44017
HEad  6.47317 3.42201 -3.9362
LeftShoulder1  1.70793 -1.56899 -27.5659
LeftArm  15.166 -32.5973 -41.8597
LeftForeArm  17.6903 -13.2447 -12.1245
LeftHand  -0.448541 -0.0971883 9.56752
RightShoulder  17.5628 26.6073 50.8443
RightArm  43.1333 13.7684 22.9168
RightForeArm  13.7653 18.1078 8.44546
RightHand  -0.988719 3.66148 -12.8895
LeftUpLeg  -14.1082 8.74074 3.43963
LeftLeg  11.3218 -4.0097 -5.08336
LeftFoot  -3.72412 0.339624 -4.76504
LeftToes  3.18074e-010 1.39432e-010 -7.71186e-011
559
root  31.8806 39.6886 -9.95226 -171.247 -33.5148 177.32
RightUpLeg  -15.5101 -12.2762 -14.6654
RightLeg  35.4192 -0.140175 -0.357204
RightFoot  -6.68147 -0.789466 18.136
RightToes  6.35937e-011 1.2921e-014 -6.02303e-014
Spine  11.1665 1.92113 -0.351288
Spine1  -1.35751 3.05043 -6.55304
HEad  6.23308 3.83259 -4.97652
LeftShoulder1  1.68423 -1.27028 -29.2122
LeftArm  10.0986 -27.0014 -38.6599
LeftForeArm  19.9395 -5.41065 -16.3031
LeftHand  -0.349398 -0.18571 7.35089
RightShoulder  15.7201 23.0072 51.7655
RightArm  30.3836 10.2614 19.3448
RightForeArm  27.4413 4.3821 16.943
RightHand  -0.855676 3.49149 -11.4031
LeftUpLeg  -13.9016 9.06458 4.76696
LeftLeg  9.76564 -5.71839 -5.10597
LeftFoot  -2.75014 0.446908 -5.7281
LeftToes  3.18074e-010 1.39432e-010 -7.71186e-011
560
root  32.3765 39.7087 -10.3462 -170.583 -34.34 177.205
RightUpLeg  -14.0917 -10.0379 -16.6679
RightLeg  27.6309 -6.59596 -3.95671
RightFoot  -5.72541 -0.744307 14.3072
RightToes  6.35937e-011 1.2921e-014 -6.02303e-014
Spine  12.0221 1.73056 0.60102
Spine1  -2.19961 2.87889 -6.17621
HEad  5.89296 4.12051 -5.5919
LeftShoulder1  1.63876 -0.97396 -30.5475
LeftArm  17.2401 -20.1671 -35.6476
LeftForeArm  9.50617 -2.23872 -18.5117
LeftHand  -0.222379 0.10752 4.91963
RightShoulder  13.7223 19.221 52.7584
RightArm  19.5112 7.14902 14.827
RightForeArm  33.4947 -1.83702 17.8037
RightHand  -0.61341 2.74792 -8.95829
LeftUpLeg  -14.0732 8.48413 5.30071
LeftLeg  8.49892 -6.16983 -4.26928
LeftFoot  -1.93574 0.582627 -6.93682
LeftToes  3.18074e-010 1.39432e-010 -7.71186e-011
561
root  32.9976 39.5934 -10.7557 -169.421 -34.8148 176.521
RightUpLeg  -12.7947 -5.55886 -19.0848
RightLeg  18.7432 -9.51576 -3.78126
RightFoot  -1.38872 -1.18939 13.4925
RightToes  6.35937e-011 1.2921e-014 -6.02303e-014
Spine  12.7634 1.63549 0.836694
Spine1  -2.60946 2.77576 -5.86816
HEad  4.76411 4.33318 -6.4911
LeftShoulder1  1.58938 -0.716438 -31.6152
LeftArm  24.3464 -13.0044 -32.7726
LeftForeArm  -1.76606 -2.50897 -19.5354
LeftHand  -0.0984984 0.577232 2.32725
RightShoulder  10.9389 15.0665 51.5424
RightArm  1.15218 3.23539 10.8884
RightForeArm  39.2635 -5.71256 16.0773
RightHand  -0.420642 2.1391 -6.67215
LeftUpLeg  -15.0688 7.94333 5.52507
LeftLeg  8.43251 -6.27508 -3.534
LeftFoot  -1.66102 0.699348 -8.13302
LeftToes  3.18074e-010 1.39432e-010 -7.71186e-011
562
root  33.8054 39.3159 -11.1889 -167.853 -35.6895 175.465
RightUpLeg  -12.4135 -2.55078 -20.8102
RightLeg  12.6364 -3.7214 -2.55951
RightFoot  -1.66926 -1.75204 20.3719
RightToes  6.35937e-011 1.2921e-014 -6.02303e-014
Spine  13.7948 1.29975 0.362672
Spine1  -3.14057 2.31002 -5.32667
HEad  3.07395 4.74297 -7.70483
LeftShoulder1  1.5452 -0.48161 -32.7222
LeftArm  23.2372 -5.09036 -29.034
LeftForeArm  -4.86998 -2.55219 -19.6762
LeftHand  -0.0310593 1.17854 0.689878
RightShoulder  7.72778 10.3589 48.8315
RightArm  -5.19576 -1.27319 9.05092
RightForeArm  30.6638 -7.10604 15.4044
RightHand  -0.318302 1.86935 -5.26247
LeftUpLeg  -17.3254 8.3455 5.80664
LeftLeg  10.0766 -7.56397 -3.73915
LeftFoot  -1.914 0.780251 -9.30993
LeftToes  3.18074e-010 1.39432e-010 -7.71186e-011
563
root  34.7975 38.9337 -11.6591 -166.151 -37.7378 174.195
RightUpLeg  -13.4505 1.37114 -22.4094
RightLeg  14.1925 -2.09721 -1.49303
RightFoot  -6.54668 -1.16403 26.2864
RightToes  6.35937e-011 1.2921e-014 -6.02303e-014
Spine  15.0322 0.650509 -0.430735
Spine1  -3.16513 1.36783 -4.15168
HEad  0.868646 4.9364 -9.17635
LeftShoulder1  1.49276 -0.260017 -33.6023
LeftArm  18.3799 2.67633 -25.5534
LeftForeArm  -4.79897 -0.847851 -19.7672
LeftHand  -0.0161406 1.85479 0.202867
RightShoulder  4.8924 5.85499 45.7659
RightArm  -6.83362 -4.82236 8.5036
RightForeArm  21.915 -7.622 15.2933
RightHand  -0.231226 1.68219 -3.95527
LeftUpLeg  -20.2643 8.30332 5.97834
LeftLeg  12.1627 -9.5633 -3.70333
LeftFoot  -2.05661 0.895884 -10.8574
LeftToes  3.18074e-010 1.39432e-010 -7.71186e-011
